# xmcd
#
# Track frame offsets:
# 150
# 12976
# 25121
# 35928
# 48921
# 60509
# 72750
# 84820
# 95989
# 108379
# 119881
# 133773
#
# Disc length: 1950 seconds
#
#
# Revision: 0
# Processed by: cddbd v1.4PL0 Copyright (c) Steve Scherf et al.
# Submitted via: FreeRIP 2.00 
#
DISCID=a6079c0c
DTITLE=Jim Reeves - Bimbo
DYEAR=1956
DGENRE=Country
TTITLE0=Bimbo
TTITLE1=How Many
TTITLE2=Echo Bonita
TTITLE3=Where Does A Broken Heart Go
TTITLE4=Penny Candy
TTITLE5=Mother Went A Walkin'
TTITLE6=Mexican Joe
TTITLE7=Then I'll Stop Loving You
TTITLE8=Drinking Tequila
TTITLE9=Gypsy Heart
TTITLE10=What Were You Doing Last Night
TTITLE11=Let Me Love You Just A Little
EXTD=RCA LPM 1410
EXTT0=
EXTT1=
EXTT2=
EXTT3=
EXTT4=
EXTT5=
EXTT6=
EXTT7=
EXTT8=
EXTT9=
EXTT10=
EXTT11=
PLAYORDER=
